<svg xmlns="http://www.w3.org/2000/svg"  viewBox="0 0 50 50" width="50px" height="50px"><path d="M23.532 10.532l-.397-.322c-.23-.127-.488-.194-.751-.195L13.5 10l-.043 18.785c0-.001.001-.001.001-.002l6.094 4.238c.172.12.372.179.571.179.211 0 .423-.067.6-.2l2.766-2.074L23.532 10.532zM20 25l-3-2v-8h3V25zM34.48 10.74l-.409-.385c-.293-.214-.646-.329-1.008-.33L26.01 9.993c-.298-.001-.592.063-.862.188l-.65.315.034 20.444 2.701 2.026c.177.133.389.2.6.2.205 0 .41-.063.585-.189l6.062-4.37V10.74zM31 23l-3 2V15h3V23zM49.921 10.575c-.156-.37-.52-.61-.921-.61-.002 0-.004 0-.006 0l-6 .036c-.407.002-.771.251-.923.628L41 13.308l-1.071-2.679C39.776 10.249 39.409 10 39 10h-3.52v18.61l2.92 2.19c.275.207.638.258.956.134.321-.123.557-.401.624-.738L40 26l1.532 3.068 1.467-2.545L43 34c0 .265.105.52.293.707l3 2C46.484 36.898 46.74 37 47 37c.129 0 .259-.025.383-.076C47.757 36.769 48 36.404 48 36V13.409l1.713-1.744C49.996 11.377 50.078 10.947 49.921 10.575zM12.5 11.001l-.365-.365c-.413-.413-.972-.644-1.556-.644L1 10c-.404 0-.77.244-.924.617-.155.374-.069.804.217 1.09L2 13.414V36c0 .382.218.73.561.898C2.7 36.966 2.851 37 3 37c.218 0 .435-.071.614-.21l8.886-6.911L12.5 11.001zM9 23l-3 2V15h3V23z"/></svg>