<svg width="47" height="29" viewBox="0 0 47 29" fill="none" xmlns="http://www.w3.org/2000/svg">
<path d="M8.37222 4.33572C8.44775 4.63782 8.44775 4.75113 8.67432 4.99659C8.7876 5.12877 8.91977 5.24205 9.25964 5.35533C9.75056 5.50638 9.92051 5.22315 9.99602 5.12874L10.1848 5.16651C10.2604 5.20428 10.317 5.24205 10.317 5.24205L10.3359 5.14764L10.2037 5.12877C10.1093 5.091 10.0338 5.05323 10.0338 5.05323C10.0338 5.05323 10.1471 4.67559 9.88274 4.37349C9.24077 3.65599 8.20227 4.07139 8.1834 4.10916L8.31558 4.1847L8.37222 4.33572ZM16.7745 6.97916C16.7367 6.99803 16.8311 7.09244 16.7745 7.24349C16.7556 7.31902 16.6612 7.41341 16.6046 7.47007C16.2081 7.82881 16.0192 7.94212 15.8493 8.50855C15.7549 8.81065 15.6794 9.09388 15.8115 9.69808C16.0003 10.5666 16.5857 10.6044 16.7934 10.6233C16.8311 10.6233 16.8878 10.7932 16.9066 10.9254C16.9255 11.0764 16.9066 11.2086 16.9066 11.2086C16.9066 11.2086 16.9822 11.303 17.0577 11.152C17.0577 11.1331 17.001 11.0009 16.9822 10.9254C16.9633 10.7555 16.9633 10.6044 16.9633 10.6044C16.9633 10.6044 17.6241 10.4533 17.8507 9.79246C18.3983 8.2064 16.8689 6.94139 16.7745 6.97916ZM14.2633 4.18467C14.301 4.18467 14.3577 4.3546 14.3765 4.48677C14.3954 4.63782 14.3765 4.77 14.3765 4.77C14.3765 4.77 14.4521 4.86441 14.5276 4.71336C14.5276 4.69449 14.4709 4.56231 14.452 4.48677C14.4332 4.31685 14.4332 4.16578 14.4332 4.16578C14.4332 4.16578 15.094 4.0336 15.3395 3.35386C15.8682 1.74893 14.3388 0.483869 14.2633 0.521637C14.2255 0.540509 14.3199 0.634918 14.2633 0.785968C14.2444 0.861505 14.15 0.95589 14.0933 1.01256C13.6968 1.3713 13.508 1.4846 13.3381 2.05103C13.2437 2.35313 13.1681 2.63636 13.3003 3.24056C13.4702 4.12798 14.0556 4.14693 14.2633 4.18467ZM24.1949 8.82955C24.1761 8.81067 24.1194 8.92396 23.9873 8.94283L23.7418 8.90506C23.2886 8.75401 23.1187 8.6596 22.6089 8.77288C22.3446 8.82952 22.0802 8.90506 21.6837 9.24493C21.0795 9.75472 21.325 10.2268 21.3816 10.3967C21.4005 10.4345 21.2872 10.5478 21.1928 10.6044C21.0795 10.6988 20.9851 10.7177 20.9851 10.7177C20.9851 10.7177 20.9473 10.831 21.0795 10.8121L21.2306 10.661C21.3438 10.5666 21.476 10.51 21.476 10.51C21.476 10.51 21.8725 10.9631 22.4768 10.8499C23.9495 10.5855 24.2705 8.88621 24.1949 8.82955ZM15.094 4.27908C14.9996 4.4679 14.9241 4.67559 14.943 5.091C14.9808 5.71409 15.3961 5.78961 15.5283 5.82737C15.5472 5.82737 15.5661 5.95955 15.5661 6.05396C15.5661 6.16724 15.5283 6.24278 15.5283 6.24278C15.5283 6.24278 15.5661 6.31832 15.6416 6.22391L15.6038 6.05399C15.6038 5.9407 15.6227 5.8274 15.6227 5.8274C15.6227 5.8274 16.0947 5.78963 16.3213 5.35535C16.85 4.29798 15.9248 3.29727 15.8682 3.29727C15.8493 3.29727 15.887 3.37281 15.8493 3.48609L15.6982 3.61827C15.3961 3.84485 15.264 3.92032 15.094 4.27908ZM18.6438 5.52527L18.5494 5.71409C18.5871 5.84627 18.6626 5.77073 18.6626 5.77073C18.6626 5.77073 18.6626 5.65745 18.7004 5.52527C18.7382 5.41199 18.7948 5.27982 18.8326 5.27982C19.0025 5.27982 19.5312 5.33646 19.8144 4.60008C20.0032 4.09029 19.9655 3.82593 19.9277 3.5616C19.8522 3.05181 19.7011 2.91964 19.399 2.56087L19.2857 2.35318C19.2669 2.20213 19.3613 2.12659 19.3235 2.10772C19.248 2.06995 17.7563 2.95738 18.0207 4.41126C18.134 5.03436 18.7004 5.24205 18.7004 5.24205C18.7004 5.24205 18.6815 5.37422 18.6438 5.52527ZM12.3185 13.5122C12.2052 13.4555 12.0919 13.3611 12.0919 13.3233C12.1296 13.1534 12.2996 12.6436 11.6198 12.2282C11.1667 11.945 10.9023 11.9072 10.638 11.8883C10.1282 11.8506 9.97712 11.9639 9.54285 12.1904L9.29739 12.266C9.14634 12.2471 9.0897 12.1527 9.0708 12.1716C9.01416 12.2282 9.58059 13.8709 11.0534 13.9275C11.6765 13.9464 11.9974 13.4366 11.9974 13.4366C11.9974 13.4366 12.1296 13.4744 12.2618 13.5499L12.4317 13.6821C12.5827 13.6821 12.5261 13.5877 12.5261 13.5877C12.5261 13.5877 12.4317 13.5688 12.3185 13.5122ZM22.1369 8.24422C22.4956 7.96099 22.6089 7.77217 22.7033 7.54561C22.8732 7.1491 22.8355 6.99805 22.7789 6.58265V6.37496C22.8355 6.26168 22.9299 6.24278 22.911 6.22391C22.8733 6.16727 21.4005 6.1295 20.9285 7.30015C20.7208 7.79107 21.0417 8.20648 21.0417 8.20648C21.0417 8.20648 20.9662 8.30088 20.8718 8.3764L20.7208 8.47081C20.683 8.58409 20.7774 8.56522 20.7774 8.56522C20.7774 8.56522 20.8341 8.48968 20.9096 8.41417L21.1173 8.30089C21.2495 8.35753 21.6082 8.64073 22.1369 8.24422ZM15.1507 11.2275C15.1507 11.2275 15.1885 11.303 15.2262 11.4163L15.2451 11.5674L15.3395 11.5485C15.3395 11.5485 15.3017 11.4919 15.264 11.3974L15.2451 11.2086C15.3395 11.152 15.6605 10.982 15.5283 10.4534C15.4339 10.0946 15.3206 9.96243 15.1885 9.83026C14.943 9.5848 14.8297 9.56592 14.5087 9.47151L14.3577 9.39598L14.2821 9.24493C14.2255 9.24493 13.7346 10.3212 14.452 11.0198C14.7541 11.3219 15.1507 11.2275 15.1507 11.2275ZM8.14563 7.39454C8.54214 7.56446 8.86313 7.319 8.86313 7.319L8.99531 7.45118L9.07085 7.58336C9.16526 7.62112 9.14639 7.54559 9.14639 7.54559L9.01421 7.43231L8.9198 7.26238C8.97644 7.16798 9.20303 6.88475 8.90093 6.46937C8.69324 6.18614 8.52329 6.09173 8.35337 6.01622C8.03237 5.86517 7.91909 5.90294 7.59809 5.94068L7.42817 5.92181C7.37153 5.88404 7.35264 5.80853 7.33376 5.80853C7.27712 5.8463 7.23931 7.0169 8.14563 7.39454ZM9.35405 11.3408C9.35405 11.3408 9.46733 11.3785 9.56174 11.4352L9.69392 11.5485C9.8072 11.5485 9.76946 11.4729 9.76946 11.4729C9.76946 11.4729 9.67505 11.4541 9.58064 11.4163C9.48623 11.3785 9.39182 11.303 9.41072 11.2652C9.42959 11.1331 9.56177 10.7177 9.03308 10.3967C8.67434 10.1701 8.44775 10.1512 8.24006 10.1324C7.82466 10.1135 7.71138 10.2079 7.35264 10.3778L7.16382 10.4345C7.05054 10.4345 6.9939 10.34 6.975 10.3589C6.93723 10.4156 7.3904 11.7373 8.5988 11.7562C9.10859 11.7373 9.35405 11.3408 9.35405 11.3408ZM12.1107 4.77C11.8086 4.58118 11.6953 4.60008 11.3744 4.60008L11.2044 4.56231C11.1289 4.50567 11.1289 4.43013 11.0912 4.43013C11.0345 4.44901 10.8457 5.60079 11.7143 6.1106C12.073 6.31829 12.4318 6.12947 12.4318 6.12947C12.4318 6.12947 12.5073 6.20501 12.545 6.28052L12.6017 6.4127C12.6961 6.45047 12.6772 6.37493 12.6772 6.37493L12.5828 6.26165L12.5073 6.07283C12.5828 5.97842 12.8471 5.73297 12.5828 5.27982C12.4129 4.95882 12.2618 4.86439 12.1107 4.77ZM15.4906 12.266L15.3584 12.1527C15.3206 12.0583 15.3584 12.0016 15.3206 12.0016C15.264 12.0016 14.5276 12.908 15.0374 13.7576C15.2451 14.1164 15.6605 14.1164 15.6605 14.1164L15.6982 14.3052L15.6794 14.4562C15.736 14.5318 15.7738 14.4751 15.7738 14.4751L15.736 14.3241C15.736 14.2485 15.736 14.1352 15.7549 14.1352C15.8682 14.0975 16.208 14.0031 16.208 13.4744C16.208 13.1156 16.1325 12.9457 16.0381 12.7946C15.8871 12.4736 15.7738 12.417 15.4906 12.266ZM16.8878 6.43157C16.8878 6.43157 16.8689 6.52598 16.8312 6.62039L16.7367 6.73367C16.7556 6.82808 16.8123 6.79031 16.8123 6.79031C16.8123 6.79031 16.8123 6.71478 16.85 6.63926L16.9633 6.48821C17.0766 6.50709 17.4165 6.58262 17.6808 6.11058C17.8508 5.78958 17.8508 5.61966 17.8508 5.43084C17.8508 5.09097 17.7563 4.97769 17.5864 4.71334L17.5298 4.56229C17.5298 4.46788 17.5864 4.43011 17.5676 4.41124C17.5298 4.37347 16.4535 4.84551 16.5102 5.84625C16.5291 6.24276 16.8878 6.43157 16.8878 6.43157ZM18.8137 8.6596C18.8137 8.6596 18.7948 8.75401 18.7382 8.84842L18.6437 8.9617C18.6437 9.05611 18.7193 9.01834 18.7193 9.01834C18.7193 9.01834 18.7382 8.9428 18.7759 8.86729L18.8892 8.71624C19.0025 8.73511 19.3424 8.82952 19.6067 8.3575C19.7766 8.03651 19.7955 7.86658 19.7955 7.67776C19.7955 7.3379 19.72 7.22462 19.5501 6.96026L19.4934 6.80921C19.4934 6.7148 19.569 6.67703 19.5501 6.65816C19.5123 6.62039 18.4172 7.05467 18.4361 8.0554C18.4738 8.45191 18.8137 8.6596 18.8137 8.6596ZM12.2429 7.54559L12.1674 7.39454C12.1107 7.39454 11.6953 8.48968 12.4506 9.15052C12.7716 9.43375 13.1492 9.30157 13.1492 9.30157C13.1492 9.30157 13.2059 9.37711 13.2436 9.47149L13.2814 9.62254L13.3758 9.60367C13.3758 9.60367 13.3192 9.54703 13.3003 9.45262L13.2625 9.2638C13.3569 9.18826 13.659 8.99947 13.4891 8.48965C13.3758 8.14979 13.2436 8.01761 13.1114 7.88546C12.866 7.64 12.7338 7.64 12.4128 7.56446L12.2429 7.54559ZM9.5051 10.0568C9.63728 10.3401 9.78833 10.6044 10.2981 10.9443C11.0345 11.4541 11.4876 11.0576 11.6387 10.9443C11.6765 10.9254 11.8275 11.0009 11.9219 11.0953C12.0352 11.1897 12.1108 11.303 12.1108 11.303C12.1108 11.303 12.2429 11.3219 12.1863 11.1708L11.9786 11.0576C11.8464 10.9631 11.7332 10.831 11.7332 10.831C11.7332 10.831 12.1108 10.2645 11.8087 9.62254C11.1101 8.09315 9.14639 8.2442 9.08975 8.31971C9.07087 8.35748 9.20303 8.37635 9.27856 8.50853C9.31633 8.58406 9.31633 8.69734 9.31633 8.79175C9.27856 9.32044 9.24075 9.52816 9.5051 10.0568ZM11.3177 6.84698C10.959 5.77073 9.59951 5.73296 9.56174 5.78961C9.54287 5.80848 9.63728 5.82737 9.67502 5.94066V6.12947C9.61838 6.48821 9.56174 6.62039 9.6939 6.99803C9.76943 7.18685 9.84495 7.37567 10.1659 7.65889C10.6191 8.0554 10.959 7.82882 11.0723 7.7533L11.2611 7.86658L11.3744 8.01763C11.3744 8.01763 11.4688 8.03651 11.431 7.92322L11.2988 7.82881C11.2233 7.75328 11.1478 7.65889 11.1478 7.65889C11.1478 7.65889 11.4688 7.30015 11.3177 6.84698ZM21.5893 4.1658C21.5704 4.1658 21.5704 4.24134 21.4949 4.31685L21.3061 4.37349C20.9473 4.43013 20.7963 4.43013 20.4941 4.67559C20.3242 4.80777 20.1731 4.93992 20.0221 5.33646C19.7955 5.90291 20.1165 6.12947 20.2298 6.22388C20.2487 6.24276 20.2109 6.35606 20.1731 6.43157C20.1354 6.52598 20.0599 6.58262 20.0599 6.58262C20.0599 6.58262 20.0599 6.67703 20.1543 6.6015L20.192 6.45045C20.2487 6.33716 20.3053 6.26163 20.3053 6.26163C20.3053 6.26163 20.7585 6.45045 21.1361 6.14835C22.0802 5.46861 21.6648 4.1847 21.5893 4.1658ZM10.9212 3.10843C10.9779 3.31612 11.0345 3.50494 11.3177 3.80704C11.7331 4.24131 12.0919 4.03362 12.2052 3.99586L12.3751 4.12803L12.4695 4.27908C12.4695 4.27908 12.545 4.31685 12.5261 4.20355L12.3939 4.09027C12.3184 3.99586 12.2618 3.90145 12.2618 3.90145C12.2618 3.90145 12.6205 3.56158 12.5072 3.08953C12.2429 1.97552 10.9023 1.82447 10.8645 1.88111C10.8457 1.89998 10.9401 1.93775 10.9589 2.03216L10.9401 2.22098C10.8834 2.59861 10.8268 2.73079 10.9212 3.10843ZM8.20227 9.49039C8.22114 9.47151 8.33445 9.50926 8.40996 9.54703C8.50437 9.5848 8.56101 9.66031 8.56101 9.66031C8.56101 9.66031 8.65542 9.66031 8.57988 9.5659L8.42883 9.50926L8.24001 9.39598C8.24001 9.39598 8.42883 8.94283 8.1456 8.56519C7.46587 7.64 6.18193 8.01763 6.16304 8.09315C6.16304 8.11202 6.23857 8.11202 6.31409 8.18755L6.37073 8.37637C6.4085 8.73511 6.4085 8.88616 6.65395 9.18829C6.78613 9.35821 6.91829 9.50928 7.29592 9.66033C7.86238 9.90579 8.10786 9.58477 8.20227 9.49039ZM15.2451 7.45118C15.2073 7.03577 15.094 6.86585 14.9808 6.6959C14.7542 6.37491 14.622 6.31827 14.2822 6.16722L14.1311 6.05394C14.0745 5.95953 14.1122 5.88402 14.0745 5.88402C14.0178 5.88402 13.2437 6.99803 13.9234 7.92322C14.2066 8.31973 14.6976 8.26309 14.6976 8.26309C14.6976 8.26309 14.7353 8.3575 14.7542 8.47078V8.6407C14.8297 8.73511 14.8486 8.6407 14.8486 8.6407C14.8486 8.6407 14.8108 8.56517 14.792 8.47078C14.7731 8.37637 14.7731 8.26309 14.8108 8.2442C14.9241 8.18756 15.3017 8.05538 15.2451 7.45118ZM12.9038 10.2645C12.8849 10.2834 12.9604 10.3401 12.9416 10.4534L12.866 10.6233C12.6583 10.9254 12.545 11.0198 12.5261 11.4163C12.5073 11.624 12.5073 11.8317 12.6772 12.2093C12.9227 12.7569 13.3192 12.6814 13.4513 12.6814C13.4702 12.6814 13.5458 12.7758 13.5646 12.8702C13.6024 12.9646 13.6024 13.059 13.6024 13.059C13.6024 13.059 13.6779 13.1156 13.6968 13.0023L13.6213 12.8513C13.5835 12.738 13.5646 12.6436 13.5646 12.6436C13.5646 12.6436 13.9989 12.4548 14.0555 11.9639C14.1877 10.8121 12.9604 10.2268 12.9038 10.2645ZM19.9655 9.03724L19.8711 9.20716L19.7011 9.2827C19.3424 9.35823 19.2102 9.37711 18.9081 9.66033C18.7571 9.81138 18.6249 9.96243 18.4927 10.3401C18.3228 10.9254 18.6626 11.1331 18.776 11.2086C18.7948 11.2275 18.776 11.3408 18.7382 11.4352C18.7004 11.5296 18.6438 11.6051 18.6438 11.6051C18.6438 11.6051 18.6626 11.6995 18.7382 11.624L18.776 11.4541C18.8137 11.3408 18.8704 11.2464 18.8704 11.2464C18.8704 11.2464 19.3424 11.3974 19.6823 11.0576C20.5508 10.2834 20.041 9.03724 19.9655 9.03724ZM17.0577 3.25948C17.0766 3.25948 17.0955 3.39166 17.0955 3.48607C17.0955 3.58048 17.0577 3.67488 17.0577 3.67488C17.0577 3.67488 17.0955 3.75042 17.1521 3.65601L17.1333 3.48609C17.1333 3.37281 17.171 3.2595 17.171 3.2595C17.171 3.2595 17.6619 3.2595 17.9074 2.8441C18.4927 1.86226 17.6431 0.823761 17.5675 0.823761C17.5487 0.823761 17.5864 0.899298 17.5298 1.01258L17.3787 1.12586C17.0577 1.31468 16.9256 1.37132 16.7367 1.71119C16.6423 1.90001 16.5479 2.06993 16.5479 2.48533C16.5479 3.1273 16.9256 3.22171 17.0577 3.25948Z" fill="#148D13"/>
<path d="M18.8704 15.1549C15.0752 19.8564 17.0766 23.5005 17.7375 23.7649C17.813 23.8026 14.7353 23.8781 14.7731 23.8593C16.2081 22.9907 13.2059 16.0801 12.6395 14.8905C12.4129 14.4185 12.866 14.9471 13.6968 14.6262C14.3577 14.3618 14.1689 13.6254 14.5654 13.7954C14.8675 13.9276 14.471 15.0227 15.0941 16.0234C15.2073 16.2122 16.85 16.25 16.8878 12.8702C16.9067 11.3408 17.5864 13.0401 18.2473 13.3045C18.9082 13.5688 19.1158 13.4744 20.4753 11.6051C20.6075 11.3785 21.6271 11.7373 18.8704 15.1549Z" fill="#824522"/>
<path d="M25 18H47V25H25V18Z" fill="#84CC16"/>
<path d="M3.516 24.096C2.764 24.096 2.304 23.748 2.136 23.052L1.986 22.434H1.704V24H0.389999V19.872H2.208C2.552 19.872 2.854 19.924 3.114 20.028C3.378 20.128 3.582 20.27 3.726 20.454C3.87 20.638 3.942 20.85 3.942 21.09C3.942 21.358 3.876 21.584 3.744 21.768C3.616 21.948 3.416 22.096 3.144 22.212C3.172 22.364 3.204 22.502 3.24 22.626C3.288 22.778 3.354 22.884 3.438 22.944C3.522 23.004 3.644 23.034 3.804 23.034C3.86 23.034 3.948 23.026 4.068 23.01V23.988C3.88 24.06 3.696 24.096 3.516 24.096ZM1.932 21.594C2.228 21.594 2.436 21.562 2.556 21.498C2.68 21.43 2.742 21.316 2.742 21.156C2.742 21.02 2.692 20.922 2.592 20.862C2.492 20.798 2.334 20.766 2.118 20.766H1.704V21.594H1.932Z" fill="#1A2E05"/>
<path d="M6.04345 24.048C5.71145 24.048 5.41545 23.982 5.15545 23.85C4.89945 23.714 4.69945 23.53 4.55545 23.298C4.41145 23.062 4.33945 22.796 4.33945 22.5C4.33945 22.196 4.41345 21.926 4.56145 21.69C4.70945 21.454 4.90945 21.272 5.16145 21.144C5.41345 21.016 5.69345 20.952 6.00145 20.952C6.29745 20.952 6.54945 21.018 6.75745 21.15C6.96945 21.278 7.12745 21.454 7.23145 21.678C7.33545 21.898 7.38745 22.146 7.38745 22.422C7.38745 22.494 7.38345 22.546 7.37545 22.578L5.57545 22.812C5.62345 22.952 5.70145 23.054 5.80945 23.118C5.91745 23.178 6.05945 23.208 6.23545 23.208C6.50745 23.208 6.80145 23.138 7.11745 22.998L7.26745 23.802C6.89545 23.966 6.48745 24.048 6.04345 24.048ZM6.45745 22.056C6.39345 21.804 6.24145 21.678 6.00145 21.678C5.85745 21.678 5.74345 21.732 5.65945 21.84C5.57545 21.948 5.53145 22.088 5.52745 22.26L6.45745 22.056Z" fill="#1A2E05"/>
<path d="M7.82344 21.036H9.02944V21.648C9.26144 21.184 9.62944 20.952 10.1334 20.952C10.5174 20.952 10.8174 21.09 11.0334 21.366C11.2534 21.638 11.3634 22.016 11.3634 22.5V24H10.1034V22.374C10.1034 22.202 10.0654 22.07 9.98944 21.978C9.91744 21.886 9.81544 21.84 9.68344 21.84C9.58744 21.84 9.49344 21.872 9.40144 21.936C9.30944 21.996 9.23344 22.084 9.17344 22.2C9.11744 22.316 9.08944 22.448 9.08944 22.596V24H7.82344V21.036Z" fill="#1A2E05"/>
<path d="M13.2686 24.048C13.0086 24.048 12.7646 23.98 12.5366 23.844C12.3126 23.704 12.1326 23.516 11.9966 23.28C11.8606 23.04 11.7926 22.774 11.7926 22.482C11.7926 22.194 11.8606 21.934 11.9966 21.702C12.1326 21.466 12.3146 21.282 12.5426 21.15C12.7706 21.018 13.0126 20.952 13.2686 20.952C13.4766 20.952 13.6686 21.01 13.8446 21.126C14.0246 21.242 14.1606 21.416 14.2526 21.648V20.952H15.5126V24H14.2526V23.442C14.0526 23.846 13.7246 24.048 13.2686 24.048ZM13.6586 23.1C13.8186 23.1 13.9546 23.044 14.0666 22.932C14.1826 22.816 14.2446 22.68 14.2526 22.524V22.476C14.2446 22.316 14.1806 22.18 14.0606 22.068C13.9446 21.956 13.8106 21.9 13.6586 21.9C13.4906 21.9 13.3466 21.96 13.2266 22.08C13.1106 22.196 13.0526 22.336 13.0526 22.5C13.0526 22.668 13.1126 22.81 13.2326 22.926C13.3526 23.042 13.4946 23.1 13.6586 23.1Z" fill="#1A2E05"/>
<path d="M17.6023 24.048C17.2823 24.048 16.9983 23.984 16.7503 23.856C16.5063 23.724 16.3143 23.54 16.1743 23.304C16.0383 23.068 15.9703 22.8 15.9703 22.5C15.9703 22.212 16.0423 21.95 16.1863 21.714C16.3303 21.478 16.5263 21.292 16.7743 21.156C17.0223 21.02 17.2983 20.952 17.6023 20.952C17.9903 20.952 18.2963 21.032 18.5203 21.192L18.4063 21.99C18.1783 21.922 17.9903 21.888 17.8423 21.888C17.6503 21.888 17.4983 21.944 17.3863 22.056C17.2743 22.164 17.2183 22.312 17.2183 22.5C17.2183 22.688 17.2743 22.838 17.3863 22.95C17.4983 23.062 17.6463 23.118 17.8303 23.118C17.9903 23.118 18.1783 23.084 18.3943 23.016L18.5083 23.856C18.3723 23.924 18.2343 23.972 18.0943 24C17.9543 24.032 17.7903 24.048 17.6023 24.048Z" fill="#1A2E05"/>
<path d="M20.4692 24.048C20.1372 24.048 19.8412 23.982 19.5812 23.85C19.3252 23.714 19.1252 23.53 18.9812 23.298C18.8372 23.062 18.7652 22.796 18.7652 22.5C18.7652 22.196 18.8392 21.926 18.9872 21.69C19.1352 21.454 19.3352 21.272 19.5872 21.144C19.8392 21.016 20.1192 20.952 20.4272 20.952C20.7232 20.952 20.9752 21.018 21.1832 21.15C21.3952 21.278 21.5532 21.454 21.6572 21.678C21.7612 21.898 21.8132 22.146 21.8132 22.422C21.8132 22.494 21.8092 22.546 21.8012 22.578L20.0012 22.812C20.0492 22.952 20.1272 23.054 20.2352 23.118C20.3432 23.178 20.4852 23.208 20.6612 23.208C20.9332 23.208 21.2272 23.138 21.5432 22.998L21.6932 23.802C21.3212 23.966 20.9132 24.048 20.4692 24.048ZM20.8832 22.056C20.8192 21.804 20.6672 21.678 20.4272 21.678C20.2832 21.678 20.1692 21.732 20.0852 21.84C20.0012 21.948 19.9572 22.088 19.9532 22.26L20.8832 22.056Z" fill="#1A2E05"/>
<path d="M22.2492 21.036H23.5152V21.648C23.6072 21.412 23.7312 21.238 23.8872 21.126C24.0472 21.01 24.2332 20.952 24.4452 20.952L24.6192 21.93C24.2392 21.93 23.9592 21.972 23.7792 22.056C23.6032 22.136 23.5152 22.264 23.5152 22.44V24H22.2492V21.036Z" fill="#1A2E05"/>
<path d="M25.39 19.872H26.596L28.24 22.098V19.872H29.314V24H28.114L26.458 21.852V24H25.39V19.872Z" fill="black"/>
<path d="M31.5298 24.048C31.1978 24.048 30.9018 23.982 30.6418 23.85C30.3858 23.714 30.1858 23.53 30.0418 23.298C29.8978 23.062 29.8258 22.796 29.8258 22.5C29.8258 22.196 29.8998 21.926 30.0478 21.69C30.1958 21.454 30.3958 21.272 30.6478 21.144C30.8998 21.016 31.1798 20.952 31.4878 20.952C31.7838 20.952 32.0358 21.018 32.2438 21.15C32.4558 21.278 32.6138 21.454 32.7178 21.678C32.8218 21.898 32.8738 22.146 32.8738 22.422C32.8738 22.494 32.8698 22.546 32.8618 22.578L31.0618 22.812C31.1098 22.952 31.1878 23.054 31.2958 23.118C31.4038 23.178 31.5458 23.208 31.7218 23.208C31.9938 23.208 32.2878 23.138 32.6038 22.998L32.7538 23.802C32.3818 23.966 31.9738 24.048 31.5298 24.048ZM31.9438 22.056C31.8798 21.804 31.7278 21.678 31.4878 21.678C31.3438 21.678 31.2298 21.732 31.1458 21.84C31.0618 21.948 31.0178 22.088 31.0138 22.26L31.9438 22.056Z" fill="black"/>
<path d="M35.0078 25.374C34.7878 25.374 34.5778 25.352 34.3778 25.308L34.4738 24.42C34.6298 24.444 34.7738 24.456 34.9058 24.456C35.1538 24.456 35.3418 24.382 35.4698 24.234C35.5978 24.09 35.6738 23.846 35.6978 23.502C35.4618 23.834 35.1018 24 34.6178 24C34.3538 24 34.1098 23.932 33.8858 23.796C33.6658 23.66 33.4898 23.476 33.3578 23.244C33.2298 23.012 33.1658 22.758 33.1658 22.482C33.1658 22.202 33.2298 21.946 33.3578 21.714C33.4858 21.478 33.6598 21.292 33.8798 21.156C34.1038 21.02 34.3478 20.952 34.6118 20.952C34.8558 20.952 35.0678 21.016 35.2478 21.144C35.4318 21.268 35.5518 21.436 35.6078 21.648V20.952H36.8738V23.238C36.8738 23.938 36.7138 24.468 36.3938 24.828C36.0778 25.192 35.6158 25.374 35.0078 25.374ZM35.0078 23.1C35.1678 23.1 35.3058 23.044 35.4218 22.932C35.5378 22.816 35.5998 22.68 35.6078 22.524V22.476C35.5998 22.324 35.5358 22.19 35.4158 22.074C35.2998 21.958 35.1638 21.9 35.0078 21.9C34.8438 21.9 34.7038 21.96 34.5878 22.08C34.4718 22.196 34.4138 22.336 34.4138 22.5C34.4138 22.664 34.4718 22.806 34.5878 22.926C34.7038 23.042 34.8438 23.1 35.0078 23.1Z" fill="black"/>
<path d="M37.4816 21.036H38.7476V21.648C38.8396 21.412 38.9636 21.238 39.1196 21.126C39.2796 21.01 39.4656 20.952 39.6776 20.952L39.8516 21.93C39.4716 21.93 39.1916 21.972 39.0116 22.056C38.8356 22.136 38.7476 22.264 38.7476 22.44V24H37.4816V21.036Z" fill="black"/>
<path d="M41.7374 24.048C41.4014 24.048 41.1014 23.982 40.8374 23.85C40.5774 23.718 40.3734 23.536 40.2254 23.304C40.0814 23.068 40.0094 22.798 40.0094 22.494C40.0094 22.19 40.0834 21.922 40.2314 21.69C40.3794 21.454 40.5834 21.272 40.8434 21.144C41.1074 21.016 41.4074 20.952 41.7434 20.952C42.0834 20.952 42.3834 21.018 42.6434 21.15C42.9074 21.278 43.1114 21.458 43.2554 21.69C43.3994 21.922 43.4714 22.19 43.4714 22.494C43.4714 22.802 43.3974 23.074 43.2494 23.31C43.1054 23.542 42.9014 23.724 42.6374 23.856C42.3774 23.984 42.0774 24.048 41.7374 24.048ZM41.7494 23.148C41.9134 23.148 42.0474 23.088 42.1514 22.968C42.2594 22.844 42.3134 22.686 42.3134 22.494C42.3134 22.302 42.2594 22.146 42.1514 22.026C42.0474 21.902 41.9134 21.84 41.7494 21.84C41.5854 21.84 41.4494 21.902 41.3414 22.026C41.2374 22.146 41.1854 22.302 41.1854 22.494C41.1854 22.686 41.2374 22.844 41.3414 22.968C41.4494 23.088 41.5854 23.148 41.7494 23.148Z" fill="black"/>
<path d="M8.12642 28V26.5455H8.70028C8.81061 26.5455 8.90459 26.5665 8.98224 26.6087C9.0599 26.6503 9.11908 26.7083 9.1598 26.7827C9.20099 26.8565 9.22159 26.9418 9.22159 27.0384C9.22159 27.1349 9.20076 27.2202 9.15909 27.294C9.11742 27.3679 9.05705 27.4254 8.97798 27.4666C8.89938 27.5078 8.80421 27.5284 8.69247 27.5284H8.3267V27.282H8.64276C8.70194 27.282 8.75071 27.2718 8.78906 27.2514C8.82789 27.2306 8.85677 27.2019 8.87571 27.1655C8.89512 27.1286 8.90483 27.0862 8.90483 27.0384C8.90483 26.9901 8.89512 26.9479 8.87571 26.9119C8.85677 26.8755 8.82789 26.8473 8.78906 26.8274C8.75024 26.8071 8.70099 26.7969 8.64133 26.7969H8.43395V28H8.12642Z" fill="black"/>
<path d="M9.89098 28.0213C9.78066 28.0213 9.68525 27.9979 9.60476 27.951C9.52474 27.9037 9.46295 27.8378 9.41939 27.7536C9.37583 27.6688 9.35405 27.5706 9.35405 27.4588C9.35405 27.3461 9.37583 27.2476 9.41939 27.1634C9.46295 27.0786 9.52474 27.0128 9.60476 26.9659C9.68525 26.9186 9.78066 26.8949 9.89098 26.8949C10.0013 26.8949 10.0965 26.9186 10.1765 26.9659C10.257 27.0128 10.319 27.0786 10.3626 27.1634C10.4061 27.2476 10.4279 27.3461 10.4279 27.4588C10.4279 27.5706 10.4061 27.6688 10.3626 27.7536C10.319 27.8378 10.257 27.9037 10.1765 27.951C10.0965 27.9979 10.0013 28.0213 9.89098 28.0213ZM9.8924 27.7869C9.94259 27.7869 9.98449 27.7727 10.0181 27.7443C10.0517 27.7154 10.0771 27.6761 10.0941 27.6264C10.1116 27.5767 10.1204 27.5201 10.1204 27.4567C10.1204 27.3932 10.1116 27.3367 10.0941 27.2869C10.0771 27.2372 10.0517 27.1979 10.0181 27.169C9.98449 27.1402 9.94259 27.1257 9.8924 27.1257C9.84174 27.1257 9.79912 27.1402 9.76456 27.169C9.73047 27.1979 9.70466 27.2372 9.68714 27.2869C9.6701 27.3367 9.66158 27.3932 9.66158 27.4567C9.66158 27.5201 9.6701 27.5767 9.68714 27.6264C9.70466 27.6761 9.73047 27.7154 9.76456 27.7443C9.79912 27.7727 9.84174 27.7869 9.8924 27.7869Z" fill="black"/>
<path d="M10.6246 28V26.9091H10.918V27.0994H10.9293C10.9492 27.0317 10.9826 26.9806 11.0295 26.946C11.0763 26.911 11.1303 26.8935 11.1914 26.8935C11.2066 26.8935 11.2229 26.8944 11.2404 26.8963C11.2579 26.8982 11.2733 26.9008 11.2866 26.9041V27.1726C11.2724 27.1683 11.2527 27.1645 11.2276 27.1612C11.2025 27.1579 11.1796 27.1563 11.1587 27.1563C11.1142 27.1563 11.0745 27.166 11.0394 27.1854C11.0049 27.2043 10.9774 27.2308 10.957 27.2649C10.9371 27.299 10.9272 27.3383 10.9272 27.3828V28H10.6246Z" fill="black"/>
<path d="M12.2085 26.5455V28H11.9059V26.5455H12.2085Z" fill="black"/>
<path d="M12.7619 28.0206C12.6923 28.0206 12.6303 28.0085 12.5758 27.9844C12.5214 27.9598 12.4783 27.9235 12.4466 27.8757C12.4153 27.8274 12.3997 27.7673 12.3997 27.6953C12.3997 27.6347 12.4108 27.5838 12.4331 27.5426C12.4553 27.5014 12.4856 27.4683 12.524 27.4432C12.5623 27.4181 12.6059 27.3992 12.6547 27.3864C12.7039 27.3736 12.7555 27.3646 12.8095 27.3594C12.8729 27.3528 12.9241 27.3466 12.9629 27.3409C13.0017 27.3348 13.0299 27.3258 13.0474 27.3139C13.0649 27.3021 13.0737 27.2846 13.0737 27.2614V27.2571C13.0737 27.2121 13.0595 27.1773 13.0311 27.1527C13.0031 27.1281 12.9634 27.1158 12.9118 27.1158C12.8573 27.1158 12.814 27.1278 12.7818 27.152C12.7496 27.1757 12.7283 27.2055 12.7179 27.2415L12.438 27.2188C12.4522 27.1525 12.4802 27.0952 12.5218 27.0469C12.5635 26.9981 12.6172 26.9607 12.6831 26.9347C12.7493 26.9082 12.8261 26.8949 12.9132 26.8949C12.9738 26.8949 13.0318 26.902 13.0872 26.9162C13.1431 26.9304 13.1925 26.9524 13.2356 26.9823C13.2792 27.0121 13.3135 27.0504 13.3386 27.0973C13.3637 27.1437 13.3762 27.1993 13.3762 27.2642V28H13.0893V27.8487H13.0808C13.0633 27.8828 13.0398 27.9129 13.0105 27.9389C12.9811 27.9645 12.9458 27.9846 12.9047 27.9993C12.8635 28.0135 12.8159 28.0206 12.7619 28.0206ZM12.8485 27.8118C12.8931 27.8118 12.9324 27.803 12.9664 27.7855C13.0005 27.7675 13.0273 27.7434 13.0467 27.7131C13.0661 27.6828 13.0758 27.6484 13.0758 27.6101V27.4943C13.0663 27.5005 13.0533 27.5062 13.0368 27.5114C13.0207 27.5161 13.0024 27.5206 12.9821 27.5249C12.9617 27.5287 12.9413 27.5322 12.921 27.5355C12.9006 27.5384 12.8822 27.541 12.8656 27.5433C12.8301 27.5485 12.7991 27.5568 12.7725 27.5682C12.746 27.5796 12.7254 27.5949 12.7108 27.6144C12.6961 27.6333 12.6887 27.657 12.6887 27.6854C12.6887 27.7266 12.7037 27.7581 12.7335 27.7798C12.7638 27.8011 12.8021 27.8118 12.8485 27.8118Z" fill="black"/>
<path d="M14.4759 28.0178C14.393 28.0178 14.3179 27.9965 14.2507 27.9538C14.1839 27.9108 14.1309 27.8475 14.0916 27.7642C14.0528 27.6804 14.0334 27.5777 14.0334 27.456C14.0334 27.331 14.0535 27.227 14.0937 27.1442C14.134 27.0608 14.1875 26.9986 14.2543 26.9574C14.3215 26.9157 14.3951 26.8949 14.4751 26.8949C14.5362 26.8949 14.5871 26.9053 14.6278 26.9261C14.669 26.9465 14.7022 26.9721 14.7273 27.0028C14.7528 27.0332 14.7723 27.063 14.7855 27.0923H14.7947V26.5455H15.0966V28H14.7983V27.8253H14.7855C14.7713 27.8556 14.7512 27.8857 14.7251 27.9155C14.6996 27.9448 14.6662 27.9692 14.625 27.9886C14.5843 28.0081 14.5346 28.0178 14.4759 28.0178ZM14.5717 27.777C14.6205 27.777 14.6617 27.7637 14.6953 27.7372C14.7294 27.7102 14.7554 27.6726 14.7734 27.6243C14.7919 27.576 14.8011 27.5194 14.8011 27.4546C14.8011 27.3897 14.7921 27.3333 14.7741 27.2855C14.7562 27.2377 14.7301 27.2008 14.696 27.1747C14.6619 27.1487 14.6205 27.1357 14.5717 27.1357C14.522 27.1357 14.4801 27.1492 14.446 27.1761C14.4119 27.2031 14.3861 27.2405 14.3686 27.2884C14.3511 27.3362 14.3423 27.3916 14.3423 27.4546C14.3423 27.518 14.3511 27.5741 14.3686 27.6229C14.3866 27.6712 14.4124 27.709 14.446 27.7365C14.4801 27.7635 14.522 27.777 14.5717 27.777Z" fill="black"/>
<path d="M15.8425 28.0213C15.7303 28.0213 15.6337 27.9986 15.5527 27.9531C15.4722 27.9072 15.4102 27.8423 15.3667 27.7585C15.3231 27.6742 15.3013 27.5746 15.3013 27.4595C15.3013 27.3473 15.3231 27.2488 15.3667 27.1641C15.4102 27.0793 15.4715 27.0133 15.5506 26.9659C15.6301 26.9186 15.7234 26.8949 15.8304 26.8949C15.9024 26.8949 15.9694 26.9065 16.0314 26.9297C16.0939 26.9524 16.1484 26.9867 16.1948 27.0327C16.2417 27.0786 16.2781 27.1364 16.3042 27.206C16.3302 27.2751 16.3432 27.3561 16.3432 27.4489V27.532H15.4221V27.3445H16.0584C16.0584 27.3009 16.0489 27.2623 16.03 27.2287C16.0111 27.1951 15.9848 27.1688 15.9512 27.1499C15.918 27.1305 15.8794 27.1207 15.8354 27.1207C15.7895 27.1207 15.7488 27.1314 15.7132 27.1527C15.6782 27.1735 15.6507 27.2017 15.6309 27.2372C15.611 27.2723 15.6008 27.3113 15.6003 27.3544V27.5327C15.6003 27.5867 15.6103 27.6333 15.6301 27.6726C15.6505 27.7119 15.6792 27.7422 15.7161 27.7635C15.753 27.7848 15.7968 27.7955 15.8475 27.7955C15.8811 27.7955 15.9119 27.7907 15.9398 27.7813C15.9677 27.7718 15.9917 27.7576 16.0115 27.7386C16.0314 27.7197 16.0466 27.6965 16.057 27.669L16.3368 27.6875C16.3226 27.7547 16.2935 27.8135 16.2495 27.8636C16.2059 27.9134 16.1496 27.9522 16.0804 27.9801C16.0118 28.0076 15.9325 28.0213 15.8425 28.0213Z" fill="black"/>
<path d="M17.1273 26.9091V27.1364H16.454V26.9091H17.1273ZM16.6081 28V26.8303C16.6081 26.7512 16.6235 26.6856 16.6543 26.6335C16.6855 26.5814 16.7282 26.5424 16.7821 26.5163C16.8361 26.4903 16.8974 26.4773 16.9661 26.4773C17.0125 26.4773 17.0549 26.4808 17.0932 26.4879C17.132 26.495 17.1609 26.5014 17.1799 26.5071L17.1259 26.7344C17.114 26.7306 17.0994 26.727 17.0819 26.7237C17.0648 26.7204 17.0473 26.7188 17.0293 26.7188C16.9848 26.7188 16.9538 26.7292 16.9363 26.75C16.9187 26.7704 16.91 26.799 16.91 26.8359V28H16.6081Z" fill="black"/>
<path d="M17.7702 28.0213C17.658 28.0213 17.5614 27.9986 17.4805 27.9531C17.4 27.9072 17.3379 27.8423 17.2944 27.7585C17.2508 27.6742 17.229 27.5746 17.229 27.4595C17.229 27.3473 17.2508 27.2488 17.2944 27.1641C17.3379 27.0793 17.3993 27.0133 17.4783 26.9659C17.5579 26.9186 17.6512 26.8949 17.7582 26.8949C17.8301 26.8949 17.8971 26.9065 17.9592 26.9297C18.0217 26.9524 18.0761 26.9867 18.1225 27.0327C18.1694 27.0786 18.2058 27.1364 18.2319 27.206C18.2579 27.2751 18.271 27.3561 18.271 27.4489V27.532H17.3498V27.3445H17.9862C17.9862 27.3009 17.9767 27.2623 17.9577 27.2287C17.9388 27.1951 17.9125 27.1688 17.8789 27.1499C17.8458 27.1305 17.8072 27.1207 17.7631 27.1207C17.7172 27.1207 17.6765 27.1314 17.641 27.1527C17.6059 27.1735 17.5785 27.2017 17.5586 27.2372C17.5387 27.2723 17.5285 27.3113 17.5281 27.3544V27.5327C17.5281 27.5867 17.538 27.6333 17.5579 27.6726C17.5782 27.7119 17.6069 27.7422 17.6438 27.7635C17.6808 27.7848 17.7246 27.7955 17.7752 27.7955C17.8088 27.7955 17.8396 27.7907 17.8675 27.7813C17.8955 27.7718 17.9194 27.7576 17.9393 27.7386C17.9592 27.7197 17.9743 27.6965 17.9847 27.669L18.2646 27.6875C18.2504 27.7547 18.2212 27.8135 18.1772 27.8636C18.1336 27.9134 18.0773 27.9522 18.0082 27.9801C17.9395 28.0076 17.8602 28.0213 17.7702 28.0213Z" fill="black"/>
<path d="M18.771 27.3693V28H18.4684V26.9091H18.7567V27.1016H18.7695C18.7937 27.0381 18.8342 26.9879 18.891 26.951C18.9478 26.9136 19.0167 26.8949 19.0977 26.8949C19.1734 26.8949 19.2395 26.9115 19.2958 26.9446C19.3522 26.9778 19.396 27.0251 19.4272 27.0867C19.4585 27.1477 19.4741 27.2207 19.4741 27.3054V28H19.1715V27.3594C19.172 27.2926 19.1549 27.2405 19.1204 27.2031C19.0858 27.1653 19.0382 27.1463 18.9776 27.1463C18.9369 27.1463 18.9009 27.1551 18.8697 27.1726C18.8389 27.1901 18.8147 27.2157 18.7972 27.2493C18.7802 27.2824 18.7714 27.3224 18.771 27.3693Z" fill="black"/>
<path d="M20.6202 27.2202L20.3432 27.2372C20.3385 27.2135 20.3283 27.1922 20.3127 27.1733C20.2971 27.1539 20.2765 27.1385 20.2509 27.1271C20.2258 27.1153 20.1957 27.1094 20.1607 27.1094C20.1138 27.1094 20.0743 27.1193 20.0421 27.1392C20.0099 27.1586 19.9938 27.1847 19.9938 27.2173C19.9938 27.2434 20.0042 27.2654 20.025 27.2834C20.0459 27.3014 20.0816 27.3158 20.1323 27.3267L20.3297 27.3665C20.4358 27.3883 20.5149 27.4233 20.5669 27.4716C20.619 27.5199 20.6451 27.5833 20.6451 27.6619C20.6451 27.7334 20.624 27.7962 20.5819 27.8501C20.5402 27.9041 20.4829 27.9463 20.41 27.9766C20.3375 28.0064 20.254 28.0213 20.1593 28.0213C20.0149 28.0213 19.8998 27.9912 19.8141 27.9311C19.7289 27.8705 19.6789 27.7881 19.6642 27.684L19.9618 27.6683C19.9708 27.7124 19.9926 27.746 20.0272 27.7692C20.0617 27.7919 20.106 27.8033 20.16 27.8033C20.213 27.8033 20.2556 27.7931 20.2878 27.7727C20.3205 27.7519 20.3371 27.7251 20.3375 27.6925C20.3371 27.665 20.3255 27.6425 20.3027 27.625C20.28 27.607 20.245 27.5933 20.1976 27.5838L20.0087 27.5462C19.9022 27.5249 19.8229 27.4879 19.7708 27.4354C19.7192 27.3828 19.6934 27.3158 19.6934 27.2344C19.6934 27.1643 19.7123 27.1039 19.7502 27.0533C19.7885 27.0026 19.8423 26.9635 19.9114 26.9361C19.981 26.9086 20.0624 26.8949 20.1557 26.8949C20.2935 26.8949 20.4019 26.924 20.481 26.9823C20.5605 27.0405 20.6069 27.1198 20.6202 27.2202Z" fill="black"/>
<path d="M21.1467 28.0206C21.0771 28.0206 21.015 28.0085 20.9606 27.9844C20.9061 27.9598 20.863 27.9235 20.8313 27.8757C20.8001 27.8274 20.7844 27.7673 20.7844 27.6953C20.7844 27.6347 20.7956 27.5838 20.8178 27.5426C20.8401 27.5014 20.8704 27.4683 20.9087 27.4432C20.9471 27.4181 20.9906 27.3992 21.0394 27.3864C21.0887 27.3736 21.1403 27.3646 21.1942 27.3594C21.2577 27.3528 21.3088 27.3466 21.3477 27.3409C21.3865 27.3348 21.4147 27.3258 21.4322 27.3139C21.4497 27.3021 21.4585 27.2846 21.4585 27.2614V27.2571C21.4585 27.2121 21.4442 27.1773 21.4158 27.1527C21.3879 27.1281 21.3481 27.1158 21.2965 27.1158C21.2421 27.1158 21.1987 27.1278 21.1665 27.152C21.1344 27.1757 21.113 27.2055 21.1026 27.2415L20.8228 27.2188C20.837 27.1525 20.8649 27.0952 20.9066 27.0469C20.9483 26.9981 21.002 26.9607 21.0678 26.9347C21.1341 26.9082 21.2108 26.8949 21.2979 26.8949C21.3585 26.8949 21.4165 26.902 21.4719 26.9162C21.5278 26.9304 21.5773 26.9524 21.6204 26.9823C21.6639 27.0121 21.6983 27.0504 21.7234 27.0973C21.7485 27.1437 21.761 27.1993 21.761 27.2642V28H21.4741V27.8487H21.4656C21.448 27.8828 21.4246 27.9129 21.3952 27.9389C21.3659 27.9645 21.3306 27.9846 21.2894 27.9993C21.2482 28.0135 21.2006 28.0206 21.1467 28.0206ZM21.2333 27.8118C21.2778 27.8118 21.3171 27.803 21.3512 27.7855C21.3853 27.7675 21.4121 27.7434 21.4315 27.7131C21.4509 27.6828 21.4606 27.6484 21.4606 27.6101V27.4943C21.4511 27.5005 21.4381 27.5062 21.4215 27.5114C21.4054 27.5161 21.3872 27.5206 21.3668 27.5249C21.3465 27.5287 21.3261 27.5322 21.3058 27.5355C21.2854 27.5384 21.2669 27.541 21.2504 27.5433C21.2148 27.5485 21.1838 27.5568 21.1573 27.5682C21.1308 27.5796 21.1102 27.5949 21.0955 27.6144C21.0808 27.6333 21.0735 27.657 21.0735 27.6854C21.0735 27.7266 21.0884 27.7581 21.1183 27.7798C21.1486 27.8011 21.1869 27.8118 21.2333 27.8118Z" fill="black"/>
<path d="M22.8606 28.0178C22.7778 28.0178 22.7027 27.9965 22.6355 27.9538C22.5687 27.9108 22.5157 27.8475 22.4764 27.7642C22.4376 27.6804 22.4181 27.5777 22.4181 27.456C22.4181 27.331 22.4383 27.227 22.4785 27.1442C22.5188 27.0608 22.5723 26.9986 22.639 26.9574C22.7063 26.9157 22.7799 26.8949 22.8599 26.8949C22.921 26.8949 22.9719 26.9053 23.0126 26.9261C23.0538 26.9465 23.0869 26.9721 23.112 27.0028C23.1376 27.0332 23.157 27.063 23.1703 27.0923H23.1795V26.5455H23.4814V28H23.1831V27.8253H23.1703C23.1561 27.8556 23.1359 27.8857 23.1099 27.9155C23.0843 27.9448 23.051 27.9692 23.0098 27.9886C22.969 28.0081 22.9193 28.0178 22.8606 28.0178ZM22.9565 27.777C23.0053 27.777 23.0465 27.7637 23.0801 27.7372C23.1142 27.7102 23.1402 27.6726 23.1582 27.6243C23.1767 27.576 23.1859 27.5194 23.1859 27.4546C23.1859 27.3897 23.1769 27.3333 23.1589 27.2855C23.1409 27.2377 23.1149 27.2008 23.0808 27.1747C23.0467 27.1487 23.0053 27.1357 22.9565 27.1357C22.9068 27.1357 22.8649 27.1492 22.8308 27.1761C22.7967 27.2031 22.7709 27.2405 22.7534 27.2884C22.7359 27.3362 22.7271 27.3916 22.7271 27.4546C22.7271 27.518 22.7359 27.5741 22.7534 27.6229C22.7714 27.6712 22.7972 27.709 22.8308 27.7365C22.8649 27.7635 22.9068 27.777 22.9565 27.777Z" fill="black"/>
<path d="M24.2273 28.0213C24.1151 28.0213 24.0185 27.9986 23.9375 27.9531C23.857 27.9072 23.795 27.8423 23.7514 27.7585C23.7079 27.6742 23.6861 27.5746 23.6861 27.4595C23.6861 27.3473 23.7079 27.2488 23.7514 27.1641C23.795 27.0793 23.8563 27.0133 23.9354 26.9659C24.0149 26.9186 24.1082 26.8949 24.2152 26.8949C24.2872 26.8949 24.3542 26.9065 24.4162 26.9297C24.4787 26.9524 24.5331 26.9867 24.5795 27.0327C24.6264 27.0786 24.6629 27.1364 24.6889 27.206C24.715 27.2751 24.728 27.3561 24.728 27.4489V27.532H23.8068V27.3445H24.4432C24.4432 27.3009 24.4337 27.2623 24.4148 27.2287C24.3958 27.1951 24.3696 27.1688 24.3359 27.1499C24.3028 27.1305 24.2642 27.1207 24.2202 27.1207C24.1742 27.1207 24.1335 27.1314 24.098 27.1527C24.063 27.1735 24.0355 27.2017 24.0156 27.2372C23.9957 27.2723 23.9856 27.3113 23.9851 27.3544V27.5327C23.9851 27.5867 23.995 27.6333 24.0149 27.6726C24.0353 27.7119 24.0639 27.7422 24.1009 27.7635C24.1378 27.7848 24.1816 27.7955 24.2322 27.7955C24.2659 27.7955 24.2966 27.7907 24.3246 27.7813C24.3525 27.7718 24.3764 27.7576 24.3963 27.7386C24.4162 27.7197 24.4313 27.6965 24.4418 27.669L24.7216 27.6875C24.7074 27.7547 24.6783 27.8135 24.6342 27.8636C24.5907 27.9134 24.5343 27.9522 24.4652 27.9801C24.3965 28.0076 24.3172 28.0213 24.2273 28.0213Z" fill="black"/>
<path d="M25.6909 27.3693V28H25.3883V26.9091H25.6767V27.1016H25.6895C25.7136 27.0381 25.7541 26.9879 25.8109 26.951C25.8677 26.9136 25.9366 26.8949 26.0176 26.8949C26.0933 26.8949 26.1594 26.9115 26.2157 26.9446C26.2721 26.9778 26.3159 27.0251 26.3471 27.0867C26.3784 27.1477 26.394 27.2207 26.394 27.3054V28H26.0914V27.3594C26.0919 27.2926 26.0749 27.2405 26.0403 27.2031C26.0057 27.1653 25.9582 27.1463 25.8975 27.1463C25.8568 27.1463 25.8208 27.1551 25.7896 27.1726C25.7588 27.1901 25.7347 27.2157 25.7172 27.2493C25.7001 27.2824 25.6913 27.3224 25.6909 27.3693Z" fill="black"/>
<path d="M27.332 27.5355V26.9091H27.6346V28H27.3441V27.8019H27.3327C27.3081 27.8658 27.2672 27.9171 27.2099 27.956C27.1531 27.9948 27.0837 28.0142 27.0018 28.0142C26.9289 28.0142 26.8647 27.9976 26.8093 27.9645C26.7539 27.9314 26.7106 27.8842 26.6793 27.8232C26.6486 27.7621 26.6329 27.6889 26.6325 27.6037V26.9091H26.935V27.5497C26.9355 27.6141 26.9528 27.665 26.9869 27.7024C27.021 27.7398 27.0666 27.7585 27.1239 27.7585C27.1604 27.7585 27.1945 27.7502 27.2262 27.7337C27.2579 27.7166 27.2835 27.6915 27.3029 27.6584C27.3228 27.6252 27.3325 27.5843 27.332 27.5355Z" fill="black"/>
<path d="M28.3738 28.0213C28.2615 28.0213 28.165 27.9986 28.084 27.9531C28.0035 27.9072 27.9415 27.8423 27.8979 27.7585C27.8543 27.6742 27.8326 27.5746 27.8326 27.4595C27.8326 27.3473 27.8543 27.2488 27.8979 27.1641C27.9415 27.0793 28.0028 27.0133 28.0819 26.9659C28.1614 26.9186 28.2547 26.8949 28.3617 26.8949C28.4337 26.8949 28.5007 26.9065 28.5627 26.9297C28.6252 26.9524 28.6796 26.9867 28.726 27.0327C28.7729 27.0786 28.8094 27.1364 28.8354 27.206C28.8614 27.2751 28.8745 27.3561 28.8745 27.4489V27.532H27.9533V27.3445H28.5897C28.5897 27.3009 28.5802 27.2623 28.5613 27.2287C28.5423 27.1951 28.516 27.1688 28.4824 27.1499C28.4493 27.1305 28.4107 27.1207 28.3667 27.1207C28.3207 27.1207 28.28 27.1314 28.2445 27.1527C28.2095 27.1735 28.182 27.2017 28.1621 27.2372C28.1422 27.2723 28.132 27.3113 28.1316 27.3544V27.5327C28.1316 27.5867 28.1415 27.6333 28.1614 27.6726C28.1818 27.7119 28.2104 27.7422 28.2473 27.7635C28.2843 27.7848 28.3281 27.7955 28.3787 27.7955C28.4123 27.7955 28.4431 27.7907 28.4711 27.7813C28.499 27.7718 28.5229 27.7576 28.5428 27.7386C28.5627 27.7197 28.5778 27.6965 28.5882 27.669L28.8681 27.6875C28.8539 27.7547 28.8248 27.8135 28.7807 27.8636C28.7372 27.9134 28.6808 27.9522 28.6117 27.9801C28.543 28.0076 28.4637 28.0213 28.3738 28.0213Z" fill="black"/>
<path d="M29.9796 27.2202L29.7026 27.2372C29.6979 27.2135 29.6877 27.1922 29.6721 27.1733C29.6564 27.1539 29.6358 27.1385 29.6103 27.1271C29.5852 27.1153 29.5551 27.1094 29.5201 27.1094C29.4732 27.1094 29.4337 27.1193 29.4015 27.1392C29.3693 27.1586 29.3532 27.1847 29.3532 27.2173C29.3532 27.2434 29.3636 27.2654 29.3844 27.2834C29.4052 27.3014 29.441 27.3158 29.4917 27.3267L29.6891 27.3665C29.7952 27.3883 29.8742 27.4233 29.9263 27.4716C29.9784 27.5199 30.0044 27.5833 30.0044 27.6619C30.0044 27.7334 29.9834 27.7962 29.9412 27.8501C29.8996 27.9041 29.8423 27.9463 29.7694 27.9766C29.6969 28.0064 29.6133 28.0213 29.5186 28.0213C29.3742 28.0213 29.2592 27.9912 29.1735 27.9311C29.0882 27.8705 29.0383 27.7881 29.0236 27.684L29.3212 27.6683C29.3302 27.7124 29.352 27.746 29.3865 27.7692C29.4211 27.7919 29.4654 27.8033 29.5194 27.8033C29.5724 27.8033 29.615 27.7931 29.6472 27.7727C29.6799 27.7519 29.6964 27.7251 29.6969 27.6925C29.6964 27.665 29.6848 27.6425 29.6621 27.625C29.6394 27.607 29.6043 27.5933 29.557 27.5838L29.3681 27.5462C29.2615 27.5249 29.1822 27.4879 29.1301 27.4354C29.0785 27.3828 29.0527 27.3158 29.0527 27.2344C29.0527 27.1643 29.0717 27.1039 29.1096 27.0533C29.1479 27.0026 29.2016 26.9635 29.2708 26.9361C29.3404 26.9086 29.4218 26.8949 29.5151 26.8949C29.6529 26.8949 29.7613 26.924 29.8404 26.9823C29.9199 27.0405 29.9663 27.1198 29.9796 27.2202Z" fill="black"/>
<path d="M30.7752 26.9091V27.1364H30.1183V26.9091H30.7752ZM30.2674 26.6477H30.57V27.6648C30.57 27.6927 30.5742 27.7145 30.5827 27.7301C30.5913 27.7453 30.6031 27.7559 30.6183 27.7621C30.6339 27.7682 30.6519 27.7713 30.6722 27.7713C30.6864 27.7713 30.7006 27.7701 30.7148 27.7678C30.729 27.7649 30.7399 27.7628 30.7475 27.7614L30.7951 27.9865C30.7799 27.9912 30.7586 27.9967 30.7312 28.0028C30.7037 28.0095 30.6703 28.0135 30.631 28.0149C30.5581 28.0178 30.4942 28.0081 30.4393 27.9858C30.3848 27.9635 30.3424 27.929 30.3121 27.8821C30.2818 27.8352 30.2669 27.776 30.2674 27.7046V26.6477Z" fill="black"/>
<path d="M30.9723 28V26.9091H31.2656V27.0994H31.277C31.2969 27.0317 31.3303 26.9806 31.3771 26.946C31.424 26.911 31.478 26.8935 31.5391 26.8935C31.5542 26.8935 31.5705 26.8944 31.5881 26.8963C31.6056 26.8982 31.621 26.9008 31.6342 26.9041V27.1726C31.62 27.1683 31.6004 27.1645 31.5753 27.1612C31.5502 27.1579 31.5272 27.1563 31.5064 27.1563C31.4619 27.1563 31.4221 27.166 31.3871 27.1854C31.3525 27.2043 31.325 27.2308 31.3047 27.2649C31.2848 27.299 31.2749 27.3383 31.2749 27.3828V28H30.9723Z" fill="black"/>
<path d="M32.2328 28.0213C32.1225 28.0213 32.027 27.9979 31.9466 27.951C31.8665 27.9037 31.8047 27.8378 31.7612 27.7536C31.7176 27.6688 31.6958 27.5706 31.6958 27.4588C31.6958 27.3461 31.7176 27.2476 31.7612 27.1634C31.8047 27.0786 31.8665 27.0128 31.9466 26.9659C32.027 26.9186 32.1225 26.8949 32.2328 26.8949C32.3431 26.8949 32.4383 26.9186 32.5183 26.9659C32.5988 27.0128 32.6608 27.0786 32.7044 27.1634C32.7479 27.2476 32.7697 27.3461 32.7697 27.4588C32.7697 27.5706 32.7479 27.6688 32.7044 27.7536C32.6608 27.8378 32.5988 27.9037 32.5183 27.951C32.4383 27.9979 32.3431 28.0213 32.2328 28.0213ZM32.2342 27.7869C32.2844 27.7869 32.3263 27.7727 32.3599 27.7443C32.3935 27.7154 32.4189 27.6761 32.4359 27.6264C32.4534 27.5767 32.4622 27.5201 32.4622 27.4567C32.4622 27.3932 32.4534 27.3367 32.4359 27.2869C32.4189 27.2372 32.3935 27.1979 32.3599 27.169C32.3263 27.1402 32.2844 27.1257 32.2342 27.1257C32.1835 27.1257 32.1409 27.1402 32.1064 27.169C32.0723 27.1979 32.0465 27.2372 32.0289 27.2869C32.0119 27.3367 32.0034 27.3932 32.0034 27.4567C32.0034 27.5201 32.0119 27.5767 32.0289 27.6264C32.0465 27.6761 32.0723 27.7154 32.1064 27.7443C32.1409 27.7727 32.1835 27.7869 32.2342 27.7869Z" fill="black"/>
<path d="M34.0096 26.9091V27.1364H33.3526V26.9091H34.0096ZM33.5018 26.6477H33.8043V27.6648C33.8043 27.6927 33.8086 27.7145 33.8171 27.7301C33.8256 27.7453 33.8375 27.7559 33.8526 27.7621C33.8683 27.7682 33.8862 27.7713 33.9066 27.7713C33.9208 27.7713 33.935 27.7701 33.9492 27.7678C33.9634 27.7649 33.9743 27.7628 33.9819 27.7614L34.0295 27.9865C34.0143 27.9912 33.993 27.9967 33.9656 28.0028C33.9381 28.0095 33.9047 28.0135 33.8654 28.0149C33.7925 28.0178 33.7286 28.0081 33.6736 27.9858C33.6192 27.9635 33.5768 27.929 33.5465 27.8821C33.5162 27.8352 33.5013 27.776 33.5018 27.7046V26.6477Z" fill="black"/>
<path d="M34.6921 28.0213C34.5799 28.0213 34.4833 27.9986 34.4023 27.9531C34.3219 27.9072 34.2598 27.8423 34.2163 27.7585C34.1727 27.6742 34.1509 27.5746 34.1509 27.4595C34.1509 27.3473 34.1727 27.2488 34.2163 27.1641C34.2598 27.0793 34.3211 27.0133 34.4002 26.9659C34.4798 26.9186 34.573 26.8949 34.68 26.8949C34.752 26.8949 34.819 26.9065 34.881 26.9297C34.9435 26.9524 34.998 26.9867 35.0444 27.0327C35.0913 27.0786 35.1277 27.1364 35.1538 27.206C35.1798 27.2751 35.1928 27.3561 35.1928 27.4489V27.532H34.2717V27.3445H34.908C34.908 27.3009 34.8986 27.2623 34.8796 27.2287C34.8607 27.1951 34.8344 27.1688 34.8008 27.1499C34.7676 27.1305 34.729 27.1207 34.685 27.1207C34.6391 27.1207 34.5984 27.1314 34.5629 27.1527C34.5278 27.1735 34.5004 27.2017 34.4805 27.2372C34.4606 27.2723 34.4504 27.3113 34.4499 27.3544V27.5327C34.4499 27.5867 34.4599 27.6333 34.4798 27.6726C34.5001 27.7119 34.5288 27.7422 34.5657 27.7635C34.6026 27.7848 34.6464 27.7955 34.6971 27.7955C34.7307 27.7955 34.7615 27.7907 34.7894 27.7813C34.8174 27.7718 34.8413 27.7576 34.8611 27.7386C34.881 27.7197 34.8962 27.6965 34.9066 27.669L35.1864 27.6875C35.1722 27.7547 35.1431 27.8135 35.0991 27.8636C35.0555 27.9134 34.9992 27.9522 34.93 27.9801C34.8614 28.0076 34.7821 28.0213 34.6921 28.0213Z" fill="black"/>
<path d="M35.3903 28V26.9091H35.6836V27.0994H35.695C35.7148 27.0317 35.7482 26.9806 35.7951 26.946C35.842 26.911 35.896 26.8935 35.957 26.8935C35.9722 26.8935 35.9885 26.8944 36.006 26.8963C36.0236 26.8982 36.0389 26.9008 36.0522 26.9041V27.1726C36.038 27.1683 36.0183 27.1645 35.9933 27.1612C35.9682 27.1579 35.9452 27.1563 35.9244 27.1563C35.8799 27.1563 35.8401 27.166 35.805 27.1854C35.7705 27.2043 35.743 27.2308 35.7227 27.2649C35.7028 27.299 35.6928 27.3383 35.6928 27.3828V28H35.3903Z" fill="black"/>
<path d="M36.2086 28V26.9091H36.502V27.0994H36.5133C36.5332 27.0317 36.5666 26.9806 36.6135 26.946C36.6603 26.911 36.7143 26.8935 36.7754 26.8935C36.7905 26.8935 36.8069 26.8944 36.8244 26.8963C36.8419 26.8982 36.8573 26.9008 36.8706 26.9041V27.1726C36.8564 27.1683 36.8367 27.1645 36.8116 27.1612C36.7865 27.1579 36.7636 27.1563 36.7427 27.1563C36.6982 27.1563 36.6584 27.166 36.6234 27.1854C36.5888 27.2043 36.5614 27.2308 36.541 27.2649C36.5211 27.299 36.5112 27.3383 36.5112 27.3828V28H36.2086Z" fill="black"/>
<path d="M37.027 28V26.9091H37.3295V28H37.027ZM37.179 26.7685C37.134 26.7685 37.0954 26.7536 37.0632 26.7237C37.0315 26.6934 37.0156 26.6572 37.0156 26.6151C37.0156 26.5734 37.0315 26.5376 37.0632 26.5078C37.0954 26.4775 37.134 26.4624 37.179 26.4624C37.224 26.4624 37.2623 26.4775 37.294 26.5078C37.3262 26.5376 37.3423 26.5734 37.3423 26.6151C37.3423 26.6572 37.3262 26.6934 37.294 26.7237C37.2623 26.7536 37.224 26.7685 37.179 26.7685Z" fill="black"/>
<path d="M38.1522 26.9091V27.1364H37.4952V26.9091H38.1522ZM37.6444 26.6477H37.9469V27.6648C37.9469 27.6927 37.9512 27.7145 37.9597 27.7301C37.9682 27.7453 37.9801 27.7559 37.9952 27.7621C38.0108 27.7682 38.0288 27.7713 38.0492 27.7713C38.0634 27.7713 38.0776 27.7701 38.0918 27.7678C38.106 27.7649 38.1169 27.7628 38.1245 27.7614L38.1721 27.9865C38.1569 27.9912 38.1356 27.9967 38.1081 28.0028C38.0807 28.0095 38.0473 28.0135 38.008 28.0149C37.9351 28.0178 37.8712 28.0081 37.8162 27.9858C37.7618 27.9635 37.7194 27.929 37.6891 27.8821C37.6588 27.8352 37.6439 27.776 37.6444 27.7046V26.6477Z" fill="black"/>
<path d="M38.8304 28.0213C38.7201 28.0213 38.6247 27.9979 38.5442 27.951C38.4642 27.9037 38.4024 27.8378 38.3588 27.7536C38.3153 27.6688 38.2935 27.5706 38.2935 27.4588C38.2935 27.3461 38.3153 27.2476 38.3588 27.1634C38.4024 27.0786 38.4642 27.0128 38.5442 26.9659C38.6247 26.9186 38.7201 26.8949 38.8304 26.8949C38.9408 26.8949 39.0359 26.9186 39.1159 26.9659C39.1964 27.0128 39.2585 27.0786 39.302 27.1634C39.3456 27.2476 39.3674 27.3461 39.3674 27.4588C39.3674 27.5706 39.3456 27.6688 39.302 27.7536C39.2585 27.8378 39.1964 27.9037 39.1159 27.951C39.0359 27.9979 38.9408 28.0213 38.8304 28.0213ZM38.8319 27.7869C38.882 27.7869 38.9239 27.7727 38.9576 27.7443C38.9912 27.7154 39.0165 27.6761 39.0336 27.6264C39.0511 27.5767 39.0598 27.5201 39.0598 27.4567C39.0598 27.3932 39.0511 27.3367 39.0336 27.2869C39.0165 27.2372 38.9912 27.1979 38.9576 27.169C38.9239 27.1402 38.882 27.1257 38.8319 27.1257C38.7812 27.1257 38.7386 27.1402 38.704 27.169C38.6699 27.1979 38.6441 27.2372 38.6266 27.2869C38.6096 27.3367 38.601 27.3932 38.601 27.4567C38.601 27.5201 38.6096 27.5767 38.6266 27.6264C38.6441 27.6761 38.6699 27.7154 38.704 27.7443C38.7386 27.7727 38.7812 27.7869 38.8319 27.7869Z" fill="black"/>
<path d="M39.5641 28V26.9091H39.8574V27.0994H39.8688C39.8887 27.0317 39.9221 26.9806 39.9689 26.946C40.0158 26.911 40.0698 26.8935 40.1309 26.8935C40.146 26.8935 40.1623 26.8944 40.1799 26.8963C40.1974 26.8982 40.2128 26.9008 40.226 26.9041V27.1726C40.2118 27.1683 40.1922 27.1645 40.1671 27.1612C40.142 27.1579 40.119 27.1563 40.0982 27.1563C40.0537 27.1563 40.0139 27.166 39.9789 27.1854C39.9443 27.2043 39.9168 27.2308 39.8965 27.2649C39.8766 27.299 39.8667 27.3383 39.8667 27.3828V28H39.5641Z" fill="black"/>
<path d="M40.3825 28V26.9091H40.685V28H40.3825ZM40.5344 26.7685C40.4895 26.7685 40.4509 26.7536 40.4187 26.7237C40.387 26.6934 40.3711 26.6572 40.3711 26.6151C40.3711 26.5734 40.387 26.5376 40.4187 26.5078C40.4509 26.4775 40.4895 26.4624 40.5344 26.4624C40.5794 26.4624 40.6178 26.4775 40.6495 26.5078C40.6817 26.5376 40.6978 26.5734 40.6978 26.6151C40.6978 26.6572 40.6817 26.6934 40.6495 26.7237C40.6178 26.7536 40.5794 26.7685 40.5344 26.7685Z" fill="black"/>
<path d="M41.4203 28.0213C41.31 28.0213 41.2145 27.9979 41.1341 27.951C41.054 27.9037 40.9922 27.8378 40.9487 27.7536C40.9051 27.6688 40.8833 27.5706 40.8833 27.4588C40.8833 27.3461 40.9051 27.2476 40.9487 27.1634C40.9922 27.0786 41.054 27.0128 41.1341 26.9659C41.2145 26.9186 41.31 26.8949 41.4203 26.8949C41.5306 26.8949 41.6258 26.9186 41.7058 26.9659C41.7863 27.0128 41.8483 27.0786 41.8919 27.1634C41.9354 27.2476 41.9572 27.3461 41.9572 27.4588C41.9572 27.5706 41.9354 27.6688 41.8919 27.7536C41.8483 27.8378 41.7863 27.9037 41.7058 27.951C41.6258 27.9979 41.5306 28.0213 41.4203 28.0213ZM41.4217 27.7869C41.4719 27.7869 41.5138 27.7727 41.5474 27.7443C41.581 27.7154 41.6064 27.6761 41.6234 27.6264C41.6409 27.5767 41.6497 27.5201 41.6497 27.4567C41.6497 27.3932 41.6409 27.3367 41.6234 27.2869C41.6064 27.2372 41.581 27.1979 41.5474 27.169C41.5138 27.1402 41.4719 27.1257 41.4217 27.1257C41.371 27.1257 41.3284 27.1402 41.2939 27.169C41.2598 27.1979 41.234 27.2372 41.2164 27.2869C41.1994 27.3367 41.1909 27.3932 41.1909 27.4567C41.1909 27.5201 41.1994 27.5767 41.2164 27.6264C41.234 27.6761 41.2598 27.7154 41.2939 27.7443C41.3284 27.7727 41.371 27.7869 41.4217 27.7869Z" fill="black"/>
<path d="M42.3308 28.0185C42.2839 28.0185 42.2437 28.0019 42.21 27.9688C42.1769 27.9351 42.1603 27.8949 42.1603 27.848C42.1603 27.8016 42.1769 27.7618 42.21 27.7287C42.2437 27.6956 42.2839 27.679 42.3308 27.679C42.3762 27.679 42.416 27.6956 42.4501 27.7287C42.4842 27.7618 42.5012 27.8016 42.5012 27.848C42.5012 27.8793 42.4932 27.9079 42.4771 27.934C42.4615 27.9595 42.4409 27.9801 42.4153 27.9957C42.3897 28.0109 42.3616 28.0185 42.3308 28.0185Z" fill="black"/>
</svg>
